<svg width="74" height="87" viewBox="0 0 74 87" fill="none" xmlns="http://www.w3.org/2000/svg">
<path d="M0.864 83V73.72H12.544C12.9493 73.72 13.312 73.8213 13.632 74.024C13.952 74.216 14.208 74.472 14.4 74.792C14.592 75.112 14.688 75.4693 14.688 75.864V83H12.784V75.928C12.784 75.8427 12.752 75.7733 12.688 75.72C12.6347 75.656 12.5653 75.624 12.48 75.624H9.04C8.96533 75.624 8.896 75.656 8.832 75.72C8.77867 75.7733 8.752 75.8427 8.752 75.928V83H6.816V75.928C6.816 75.8427 6.78933 75.7733 6.736 75.72C6.68267 75.656 6.61333 75.624 6.528 75.624H3.072C2.99733 75.624 2.928 75.656 2.864 75.72C2.81067 75.7733 2.784 75.8427 2.784 75.928V83H0.864ZM21.4674 83L17.8194 73.72H19.8514L22.2354 79.528L24.7634 73.72H26.8274L29.5154 79.56L31.7234 73.72H33.7714L30.2674 83H28.7634L25.8034 76.456L22.9874 83H21.4674ZM38.9475 83C38.5528 83 38.1955 82.904 37.8755 82.712C37.5555 82.5093 37.2942 82.248 37.0915 81.928C36.8995 81.608 36.8035 81.2507 36.8035 80.856V75.864C36.8035 75.4693 36.8995 75.112 37.0915 74.792C37.2942 74.472 37.5555 74.216 37.8755 74.024C38.1955 73.8213 38.5528 73.72 38.9475 73.72H44.0835C44.4888 73.72 44.8515 73.8213 45.1715 74.024C45.4915 74.216 45.7475 74.472 45.9395 74.792C46.1315 75.112 46.2275 75.4693 46.2275 75.864V80.856C46.2275 81.2507 46.1315 81.608 45.9395 81.928C45.7475 82.248 45.4915 82.5093 45.1715 82.712C44.8515 82.904 44.4888 83 44.0835 83H38.9475ZM39.0115 81.096H44.0195C44.1048 81.096 44.1742 81.0693 44.2275 81.016C44.2915 80.952 44.3235 80.8773 44.3235 80.792V75.928C44.3235 75.8427 44.2915 75.7733 44.2275 75.72C44.1742 75.656 44.1048 75.624 44.0195 75.624H39.0115C38.9262 75.624 38.8515 75.656 38.7875 75.72C38.7342 75.7733 38.7075 75.8427 38.7075 75.928V80.792C38.7075 80.8773 38.7342 80.952 38.7875 81.016C38.8515 81.0693 38.9262 81.096 39.0115 81.096ZM52.0663 83C51.6716 83 51.3143 82.904 50.9943 82.712C50.6743 82.5093 50.4129 82.248 50.2103 81.928C50.0183 81.608 49.9223 81.2507 49.9223 80.856V75.864C49.9223 75.4693 50.0183 75.112 50.2103 74.792C50.4129 74.472 50.6743 74.216 50.9943 74.024C51.3143 73.8213 51.6716 73.72 52.0663 73.72H57.2023C57.6076 73.72 57.9703 73.8213 58.2903 74.024C58.6103 74.216 58.8663 74.472 59.0583 74.792C59.2503 75.112 59.3463 75.4693 59.3463 75.864V80.856C59.3463 81.2507 59.2503 81.608 59.0583 81.928C58.8663 82.248 58.6103 82.5093 58.2903 82.712C57.9703 82.904 57.6076 83 57.2023 83H52.0663ZM52.1303 81.096H57.1383C57.2236 81.096 57.2929 81.0693 57.3463 81.016C57.4103 80.952 57.4423 80.8773 57.4423 80.792V75.928C57.4423 75.8427 57.4103 75.7733 57.3463 75.72C57.2929 75.656 57.2236 75.624 57.1383 75.624H52.1303C52.0449 75.624 51.9703 75.656 51.9063 75.72C51.8529 75.7733 51.8263 75.8427 51.8263 75.928V80.792C51.8263 80.8773 51.8529 80.952 51.9063 81.016C51.9703 81.0693 52.0449 81.096 52.1303 81.096ZM65.0964 83C64.7017 83 64.339 82.904 64.0084 82.712C63.6884 82.5093 63.4324 82.248 63.2404 81.928C63.0484 81.608 62.9524 81.2507 62.9524 80.856V75.864C62.9524 75.4693 63.0484 75.112 63.2404 74.792C63.4324 74.472 63.6884 74.216 64.0084 74.024C64.339 73.8213 64.7017 73.72 65.0964 73.72H70.4884V70.68H72.3924V83H65.0964ZM65.1764 81.096H70.1844C70.2697 81.096 70.339 81.0693 70.3924 81.016C70.4564 80.952 70.4884 80.8773 70.4884 80.792V75.928C70.4884 75.8427 70.4564 75.7733 70.3924 75.72C70.339 75.656 70.2697 75.624 70.1844 75.624H65.1764C65.091 75.624 65.0164 75.656 64.9524 75.72C64.899 75.7733 64.8724 75.8427 64.8724 75.928V80.792C64.8724 80.8773 64.899 80.952 64.9524 81.016C65.0164 81.0693 65.091 81.096 65.1764 81.096Z" fill="black"/>
<g filter="url(#filter0_d_197_923)">
<rect x="7" y="3" width="60" height="60" rx="10" fill="#1CE783"/>
<rect x="8" y="4" width="58" height="58" rx="9" stroke="url(#paint0_linear_197_923)" stroke-width="2"/>
</g>
<path d="M47.9987 27.5H44.332V23.8333H47.9987M47.9987 34.8333H44.332V31.1667H47.9987M47.9987 42.1667H44.332V38.5H47.9987M29.6654 27.5H25.9987V23.8333H29.6654M29.6654 34.8333H25.9987V31.1667H29.6654M29.6654 42.1667H25.9987V38.5H29.6654M47.9987 16.5V20.1667H44.332V16.5H29.6654V20.1667H25.9987V16.5H22.332V49.5H25.9987V45.8333H29.6654V49.5H44.332V45.8333H47.9987V49.5H51.6654V16.5H47.9987Z" fill="black"/>
<path d="M47.9987 27.5H44.332V23.8333H47.9987M47.9987 34.8333H44.332V31.1667H47.9987M47.9987 42.1667H44.332V38.5H47.9987M29.6654 27.5H25.9987V23.8333H29.6654M29.6654 34.8333H25.9987V31.1667H29.6654M29.6654 42.1667H25.9987V38.5H29.6654M47.9987 16.5V20.1667H44.332V16.5H29.6654V20.1667H25.9987V16.5H22.332V49.5H25.9987V45.8333H29.6654V49.5H44.332V45.8333H47.9987V49.5H51.6654V16.5H47.9987Z" fill="url(#paint1_linear_197_923)" fill-opacity="0.2"/>
<defs>
<filter id="filter0_d_197_923" x="4" y="0" width="68" height="68" filterUnits="userSpaceOnUse" color-interpolation-filters="sRGB">
<feFlood flood-opacity="0" result="BackgroundImageFix"/>
<feColorMatrix in="SourceAlpha" type="matrix" values="0 0 0 0 0 0 0 0 0 0 0 0 0 0 0 0 0 0 127 0" result="hardAlpha"/>
<feOffset dx="1" dy="1"/>
<feGaussianBlur stdDeviation="2"/>
<feComposite in2="hardAlpha" operator="out"/>
<feColorMatrix type="matrix" values="0 0 0 0 0 0 0 0 0 0 0 0 0 0 0 0 0 0 0.25 0"/>
<feBlend mode="normal" in2="BackgroundImageFix" result="effect1_dropShadow_197_923"/>
<feBlend mode="normal" in="SourceGraphic" in2="effect1_dropShadow_197_923" result="shape"/>
</filter>
<linearGradient id="paint0_linear_197_923" x1="11" y1="9" x2="60.5" y2="57" gradientUnits="userSpaceOnUse">
<stop stop-color="#09F781"/>
<stop offset="0.998348" stop-color="#039A50"/>
</linearGradient>
<linearGradient id="paint1_linear_197_923" x1="22" y1="18" x2="50" y2="48.5" gradientUnits="userSpaceOnUse">
<stop stop-color="white"/>
<stop offset="0.515" stop-color="white"/>
<stop offset="1" stop-color="white" stop-opacity="0"/>
</linearGradient>
</defs>
</svg>
