<svg width="110" height="92" viewBox="0 0 110 92" fill="none" xmlns="http://www.w3.org/2000/svg">
<path d="M1.296 86V72.08H18.816C19.424 72.08 19.968 72.232 20.448 72.536C20.928 72.824 21.312 73.208 21.6 73.688C21.888 74.168 22.032 74.704 22.032 75.296V86H19.176V75.392C19.176 75.264 19.128 75.16 19.032 75.08C18.952 74.984 18.848 74.936 18.72 74.936H13.56C13.448 74.936 13.344 74.984 13.248 75.08C13.168 75.16 13.128 75.264 13.128 75.392V86H10.224V75.392C10.224 75.264 10.184 75.16 10.104 75.08C10.024 74.984 9.92 74.936 9.792 74.936H4.608C4.496 74.936 4.392 74.984 4.296 75.08C4.216 75.16 4.176 75.264 4.176 75.392V86H1.296ZM32.2011 86L26.7291 72.08H29.7771L33.3531 80.792L37.1451 72.08H40.2411L44.2731 80.84L47.5851 72.08H50.6571L45.4011 86H43.1451L38.7051 76.184L34.4811 86H32.2011ZM58.4213 86C57.8293 86 57.2933 85.856 56.8133 85.568C56.3333 85.264 55.9413 84.872 55.6373 84.392C55.3493 83.912 55.2053 83.376 55.2053 82.784V75.296C55.2053 74.704 55.3493 74.168 55.6373 73.688C55.9413 73.208 56.3333 72.824 56.8133 72.536C57.2933 72.232 57.8293 72.08 58.4213 72.08H66.1253C66.7333 72.08 67.2773 72.232 67.7573 72.536C68.2373 72.824 68.6213 73.208 68.9093 73.688C69.1973 74.168 69.3413 74.704 69.3413 75.296V82.784C69.3413 83.376 69.1973 83.912 68.9093 84.392C68.6213 84.872 68.2373 85.264 67.7573 85.568C67.2773 85.856 66.7333 86 66.1253 86H58.4213ZM58.5173 83.144H66.0293C66.1573 83.144 66.2613 83.104 66.3413 83.024C66.4373 82.928 66.4853 82.816 66.4853 82.688V75.392C66.4853 75.264 66.4373 75.16 66.3413 75.08C66.2613 74.984 66.1573 74.936 66.0293 74.936H58.5173C58.3893 74.936 58.2773 74.984 58.1813 75.08C58.1013 75.16 58.0613 75.264 58.0613 75.392V82.688C58.0613 82.816 58.1013 82.928 58.1813 83.024C58.2773 83.104 58.3893 83.144 58.5173 83.144ZM78.0994 86C77.5074 86 76.9714 85.856 76.4914 85.568C76.0114 85.264 75.6194 84.872 75.3154 84.392C75.0274 83.912 74.8834 83.376 74.8834 82.784V75.296C74.8834 74.704 75.0274 74.168 75.3154 73.688C75.6194 73.208 76.0114 72.824 76.4914 72.536C76.9714 72.232 77.5074 72.08 78.0994 72.08H85.8034C86.4114 72.08 86.9554 72.232 87.4354 72.536C87.9154 72.824 88.2994 73.208 88.5874 73.688C88.8754 74.168 89.0194 74.704 89.0194 75.296V82.784C89.0194 83.376 88.8754 83.912 88.5874 84.392C88.2994 84.872 87.9154 85.264 87.4354 85.568C86.9554 85.856 86.4114 86 85.8034 86H78.0994ZM78.1954 83.144H85.7074C85.8354 83.144 85.9394 83.104 86.0194 83.024C86.1154 82.928 86.1634 82.816 86.1634 82.688V75.392C86.1634 75.264 86.1154 75.16 86.0194 75.08C85.9394 74.984 85.8354 74.936 85.7074 74.936H78.1954C78.0674 74.936 77.9554 74.984 77.8594 75.08C77.7794 75.16 77.7394 75.264 77.7394 75.392V82.688C77.7394 82.816 77.7794 82.928 77.8594 83.024C77.9554 83.104 78.0674 83.144 78.1954 83.144ZM97.6446 86C97.0526 86 96.5086 85.856 96.0126 85.568C95.5326 85.264 95.1486 84.872 94.8606 84.392C94.5726 83.912 94.4286 83.376 94.4286 82.784V75.296C94.4286 74.704 94.5726 74.168 94.8606 73.688C95.1486 73.208 95.5326 72.824 96.0126 72.536C96.5086 72.232 97.0526 72.08 97.6446 72.08H105.733V67.52H108.589V86H97.6446ZM97.7646 83.144H105.277C105.405 83.144 105.509 83.104 105.589 83.024C105.685 82.928 105.733 82.816 105.733 82.688V75.392C105.733 75.264 105.685 75.16 105.589 75.08C105.509 74.984 105.405 74.936 105.277 74.936H97.7646C97.6366 74.936 97.5246 74.984 97.4286 75.08C97.3486 75.16 97.3086 75.264 97.3086 75.392V82.688C97.3086 82.816 97.3486 82.928 97.4286 83.024C97.5246 83.104 97.6366 83.144 97.7646 83.144Z" fill="black"/>
<g filter="url(#filter0_d_201_922)">
<rect x="25" y="3" width="60" height="60" rx="10" fill="#1CE783"/>
<rect x="26" y="4" width="58" height="58" rx="9" stroke="url(#paint0_linear_201_922)" stroke-width="2"/>
</g>
<path d="M65.9987 27.5H62.332V23.8333H65.9987M65.9987 34.8333H62.332V31.1667H65.9987M65.9987 42.1667H62.332V38.5H65.9987M47.6654 27.5H43.9987V23.8333H47.6654M47.6654 34.8333H43.9987V31.1667H47.6654M47.6654 42.1667H43.9987V38.5H47.6654M65.9987 16.5V20.1667H62.332V16.5H47.6654V20.1667H43.9987V16.5H40.332V49.5H43.9987V45.8333H47.6654V49.5H62.332V45.8333H65.9987V49.5H69.6654V16.5H65.9987Z" fill="black"/>
<path d="M65.9987 27.5H62.332V23.8333H65.9987M65.9987 34.8333H62.332V31.1667H65.9987M65.9987 42.1667H62.332V38.5H65.9987M47.6654 27.5H43.9987V23.8333H47.6654M47.6654 34.8333H43.9987V31.1667H47.6654M47.6654 42.1667H43.9987V38.5H47.6654M65.9987 16.5V20.1667H62.332V16.5H47.6654V20.1667H43.9987V16.5H40.332V49.5H43.9987V45.8333H47.6654V49.5H62.332V45.8333H65.9987V49.5H69.6654V16.5H65.9987Z" fill="url(#paint1_linear_201_922)" fill-opacity="0.2"/>
<defs>
<filter id="filter0_d_201_922" x="22" y="0" width="68" height="68" filterUnits="userSpaceOnUse" color-interpolation-filters="sRGB">
<feFlood flood-opacity="0" result="BackgroundImageFix"/>
<feColorMatrix in="SourceAlpha" type="matrix" values="0 0 0 0 0 0 0 0 0 0 0 0 0 0 0 0 0 0 127 0" result="hardAlpha"/>
<feOffset dx="1" dy="1"/>
<feGaussianBlur stdDeviation="2"/>
<feComposite in2="hardAlpha" operator="out"/>
<feColorMatrix type="matrix" values="0 0 0 0 0 0 0 0 0 0 0 0 0 0 0 0 0 0 0.25 0"/>
<feBlend mode="normal" in2="BackgroundImageFix" result="effect1_dropShadow_201_922"/>
<feBlend mode="normal" in="SourceGraphic" in2="effect1_dropShadow_201_922" result="shape"/>
</filter>
<linearGradient id="paint0_linear_201_922" x1="29" y1="9" x2="78.5" y2="57" gradientUnits="userSpaceOnUse">
<stop stop-color="#09F781"/>
<stop offset="0.998348" stop-color="#039A50"/>
</linearGradient>
<linearGradient id="paint1_linear_201_922" x1="40" y1="18" x2="68" y2="48.5" gradientUnits="userSpaceOnUse">
<stop stop-color="white"/>
<stop offset="0.515" stop-color="white"/>
<stop offset="1" stop-color="white" stop-opacity="0"/>
</linearGradient>
</defs>
</svg>
